<?xml version="1.0" encoding="UTF-8"?>
<svg xmlns="http://www.w3.org/2000/svg" viewBox="0 0 1280 860" role="img" aria-labelledby="title desc">
  <title id="title">BRC-100 wallet request flows</title>
  <desc id="desc">Desktop and mobile application flows: web apps call a BRC-100 wallet client; BSV Desktop receives requests over localhost, while BSV Browser receives requests through a postMessage bridge into the native wallet. Wallets may use Wallet Infra and network services while keys remain local.</desc>
  <style>
    .panel { fill: #101624; stroke: #2a3a52; stroke-width: 1.5; }
    .panel-dark { fill: #0b1120; stroke: #475569; stroke-width: 1.5; }
    .box-strong { fill: rgba(37, 99, 235, 0.18); stroke: #60a5fa; stroke-width: 2; }
    .box-wallet { fill: rgba(8, 145, 178, 0.18); stroke: #22d3ee; stroke-width: 2; }
    .box-infra { fill: rgba(180, 83, 9, 0.18); stroke: #f59e0b; stroke-width: 1.75; }
    .title { font: 700 22px ui-sans-serif, system-ui, -apple-system, sans-serif; fill: #f8fafc; }
    .subtitle { font: 700 15px ui-sans-serif, system-ui, -apple-system, sans-serif; fill: #e2e8f0; }
    .label { font: 14px ui-sans-serif, system-ui, -apple-system, sans-serif; fill: #cbd5e1; }
    .mono { font: 14px ui-monospace, "SF Mono", Menlo, monospace; fill: #e0f2fe; }
    .small { font: 13px ui-sans-serif, system-ui, -apple-system, sans-serif; fill: #94a3b8; }
    .arrow-blue { stroke: #60a5fa; stroke-width: 2.4; fill: none; marker-end: url(#arrow-blue); }
    .arrow-cyan { stroke: #22d3ee; stroke-width: 2.3; fill: none; marker-end: url(#arrow-cyan); }
    .arrow-gold { stroke: #f59e0b; stroke-width: 2; fill: none; marker-end: url(#arrow-gold); stroke-dasharray: 6 6; }
  </style>
  <defs>
    <marker id="arrow-blue" markerWidth="10" markerHeight="10" refX="9" refY="3" orient="auto">
      <path d="M0,0 L0,6 L9,3 z" fill="#60a5fa"/>
    </marker>
    <marker id="arrow-cyan" markerWidth="10" markerHeight="10" refX="9" refY="3" orient="auto">
      <path d="M0,0 L0,6 L9,3 z" fill="#22d3ee"/>
    </marker>
    <marker id="arrow-gold" markerWidth="10" markerHeight="10" refX="9" refY="3" orient="auto">
      <path d="M0,0 L0,6 L9,3 z" fill="#f59e0b"/>
    </marker>
  </defs>

  <rect x="35" y="30" width="1210" height="360" rx="12" class="panel"/>
  <text x="65" y="72" class="title">Desktop flow: web app to BSV Desktop</text>
  <text x="65" y="102" class="label">The app asks for a wallet action. BSV Desktop receives the BRC-100 call on localhost, keeps keys local,</text>
  <text x="65" y="124" class="label">and may use remote infrastructure for wallet state.</text>

  <rect x="70" y="165" width="275" height="120" rx="9" class="box-strong"/>
  <text x="207" y="200" text-anchor="middle" class="subtitle">Web application</text>
  <text x="95" y="230" class="mono">await wallet.createAction(...)</text>
  <text x="95" y="257" class="small">@bsv/simple or WalletClient</text>

  <line x1="345" y1="225" x2="465" y2="225" class="arrow-blue"/>
  <text x="372" y="207" class="mono">HTTP localhost</text>
  <text x="382" y="254" class="small">BRC-100 substrate</text>

  <rect x="465" y="152" width="300" height="145" rx="9" class="box-wallet"/>
  <text x="615" y="188" text-anchor="middle" class="subtitle">BSV Desktop</text>
  <text x="492" y="220" class="label">Local wallet process</text>
  <text x="492" y="247" class="label">Selects outputs from baskets</text>
  <text x="492" y="274" class="label">Signs transaction on device</text>

  <line x1="765" y1="225" x2="900" y2="225" class="arrow-gold"/>
  <text x="802" y="207" class="mono">HTTPS</text>
  <text x="794" y="254" class="small">if configured</text>

  <rect x="900" y="152" width="310" height="145" rx="9" class="box-infra"/>
  <text x="1055" y="188" text-anchor="middle" class="subtitle">Wallet Infra</text>
  <text x="925" y="220" class="mono">https://store-us-1.bsvb.tech</text>
  <text x="925" y="247" class="label">UTXO state, baskets, labels</text>
  <text x="925" y="274" class="label">Certificate and wallet metadata</text>

  <path d="M615 297 C615 325, 207 325, 207 286" class="arrow-cyan"/>
  <text x="355" y="310" class="mono">signed AtomicBEEF + txid</text>

  <rect x="65" y="334" width="1150" height="44" rx="8" class="panel-dark"/>
  <text x="92" y="362" class="label">Key boundary: private keys remain inside BSV Desktop. The web app receives results, not key material or unrestricted storage access.</text>

  <rect x="35" y="455" width="1210" height="355" rx="12" class="panel"/>
  <text x="65" y="497" class="title">Mobile flow: web app inside BSV Browser</text>
  <text x="65" y="527" class="label">The same BRC-100 method surface works on mobile, but the transport is a postMessage bridge from the</text>
  <text x="65" y="549" class="label">embedded browser to native wallet code.</text>

  <rect x="70" y="590" width="275" height="120" rx="9" class="box-strong"/>
  <text x="207" y="625" text-anchor="middle" class="subtitle">Embedded web app</text>
  <text x="95" y="655" class="mono">wallet.createAction(...)</text>
  <text x="95" y="682" class="small">runs in WebView</text>

  <line x1="345" y1="650" x2="465" y2="650" class="arrow-blue"/>
  <text x="374" y="632" class="mono">postMessage</text>
  <text x="385" y="679" class="small">BRC-100 bridge</text>

  <rect x="465" y="577" width="300" height="145" rx="9" class="box-wallet"/>
  <text x="615" y="613" text-anchor="middle" class="subtitle">BSV Browser</text>
  <text x="492" y="645" class="label">Native mobile wallet</text>
  <text x="492" y="672" class="label">Finds spendable outputs</text>
  <text x="492" y="699" class="label">Signs on device</text>

  <line x1="765" y1="650" x2="900" y2="650" class="arrow-gold"/>
  <text x="802" y="632" class="mono">HTTPS</text>
  <text x="794" y="679" class="small">if configured</text>

  <rect x="900" y="577" width="310" height="145" rx="9" class="box-infra"/>
  <text x="1055" y="613" text-anchor="middle" class="subtitle">Network services</text>
  <text x="925" y="645" class="label">Wallet Infra for state</text>
  <text x="925" y="672" class="label">ARC for broadcast</text>
  <text x="925" y="699" class="label">Chaintracks for headers/proofs</text>

  <path d="M615 722 C615 760, 207 760, 207 711" class="arrow-cyan"/>
  <text x="383" y="744" class="mono">response via postMessage</text>
</svg>
