<?xml version="1.0" encoding="UTF-8"?>
<svg xmlns="http://www.w3.org/2000/svg" viewBox="0 0 900 620" role="img" aria-labelledby="title desc">
  <title id="title">Overlay Node Architecture</title>
  <desc id="desc">An overlay node: HTTP server (OverlayExpress) wraps an Engine that orchestrates topic managers, lookup services, and storage, alongside a Janitor service for SHIP/SLAP host validation.</desc>
  <style>
    .box { fill: rgba(15, 23, 42, 0.72); stroke: #334155; stroke-width: 1.5; }
    .box-accent { fill: rgba(8, 145, 178, 0.18); stroke: #22d3ee; stroke-width: 1.75; }
    .box-amber { fill: rgba(180, 83, 9, 0.14); stroke: #f59e0b; stroke-width: 1.5; }
    .arrow { stroke: #94a3b8; stroke-width: 1.5; fill: none; marker-end: url(#arrow); }
    .arrow-orange { stroke: #22d3ee; stroke-width: 1.75; fill: none; marker-end: url(#arrow-orange); }
    .title { font: 600 14px ui-sans-serif, system-ui, -apple-system, sans-serif; fill: #e2e8f0; }
    .label { font: 12px ui-sans-serif, system-ui, sans-serif; fill: #cbd5e1; }
    .heading { font: 700 16px ui-sans-serif, system-ui, sans-serif; fill: #22d3ee; letter-spacing: 0.5px; }
  </style>
  <defs>
    <marker id="arrow" markerWidth="10" markerHeight="10" refX="9" refY="3" orient="auto">
      <path d="M0,0 L0,6 L9,3 z" fill="#94a3b8"/>
    </marker>
    <marker id="arrow-orange" markerWidth="10" markerHeight="10" refX="9" refY="3" orient="auto">
      <path d="M0,0 L0,6 L9,3 z" fill="#22d3ee"/>
    </marker>
  </defs>

  <!-- Your Application -->
  <rect x="280" y="20" width="340" height="50" rx="8" class="box-accent"/>
  <text x="450" y="51" text-anchor="middle" class="heading">Your Application</text>

  <line x1="450" y1="70" x2="450" y2="100" class="arrow-orange"/>

  <!-- OverlayExpress -->
  <rect x="220" y="105" width="460" height="100" rx="8" class="box"/>
  <text x="450" y="131" text-anchor="middle" class="title">OverlayExpress (HTTP Server)</text>
  <text x="240" y="161" class="label">• Admin endpoints</text>
  <text x="240" y="181" class="label">• Health checks</text>
  <text x="240" y="201" class="label">• Web UI</text>

  <!-- arrows to engine + janitor -->
  <line x1="370" y1="205" x2="270" y2="245" class="arrow"/>
  <line x1="530" y1="205" x2="630" y2="245" class="arrow"/>

  <!-- Engine -->
  <rect x="80" y="250" width="380" height="170" rx="8" class="box-amber"/>
  <text x="270" y="276" text-anchor="middle" class="title">Engine</text>
  <line x1="100" y1="288" x2="440" y2="288" stroke="#94a3b8" stroke-width="1" stroke-dasharray="3,3"/>
  <text x="100" y="312" class="label">• Topic Managers</text>
  <text x="100" y="334" class="label">• Lookup Services</text>
  <text x="100" y="356" class="label">• Storage (Knex)</text>
  <text x="100" y="378" class="label">• GASP Sync</text>
  <text x="100" y="400" class="label">• SHIP / SLAP</text>

  <!-- Janitor Service -->
  <rect x="500" y="250" width="320" height="170" rx="8" class="box"/>
  <text x="660" y="276" text-anchor="middle" class="title">Janitor Service</text>
  <line x1="520" y1="288" x2="800" y2="288" stroke="#9CA3AF" stroke-width="1" stroke-dasharray="3,3"/>
  <text x="520" y="312" class="label">• SHIP / SLAP advertising</text>
  <text x="520" y="334" class="label">• Host validation</text>
  <text x="520" y="356" class="label">• Periodic cleanup</text>

  <!-- arrows from engine to storage layer -->
  <line x1="160" y1="420" x2="160" y2="465" class="arrow"/>
  <line x1="270" y1="420" x2="450" y2="465" class="arrow"/>
  <line x1="380" y1="420" x2="740" y2="465" class="arrow"/>

  <!-- Storage layer -->
  <rect x="60" y="470" width="220" height="120" rx="8" class="box"/>
  <text x="170" y="496" text-anchor="middle" class="title">MongoDB</text>
  <text x="80" y="526" class="label">Per-service</text>
  <text x="80" y="546" class="label">storage for</text>
  <text x="80" y="566" class="label">lookup data</text>

  <rect x="320" y="470" width="220" height="120" rx="8" class="box"/>
  <text x="430" y="496" text-anchor="middle" class="title">SQL DB (Knex)</text>
  <text x="340" y="526" class="label">Global engine state</text>
  <text x="340" y="546" class="label">PostgreSQL,</text>
  <text x="340" y="566" class="label">MySQL or SQLite</text>

  <rect x="580" y="470" width="220" height="120" rx="8" class="box-accent"/>
  <text x="690" y="496" text-anchor="middle" class="title">Blockchain</text>
  <text x="600" y="526" class="label">SPV verification</text>
  <text x="600" y="546" class="label">via merkle proofs</text>
  <text x="600" y="566" class="label">(no full node needed)</text>
</svg>
