<?xml version="1.0" encoding="UTF-8"?>
<svg xmlns="http://www.w3.org/2000/svg" viewBox="0 0 1440 840" role="img" aria-labelledby="title desc">
  <title id="title">ts-stack layers</title>
  <desc id="desc">Three primary stack layers: application APIs, the BRC-100 wallet interface boundary, wallet builder toolkit, and the @bsv/sdk foundation.</desc>
  <style>
    .panel { fill: #101624; stroke: #2a3a52; stroke-width: 1.5; }
    .layer-app { fill: rgba(37, 99, 235, 0.17); stroke: #60a5fa; stroke-width: 2; }
    .layer-wallet { fill: rgba(8, 145, 178, 0.18); stroke: #22d3ee; stroke-width: 2; }
    .layer-sdk { fill: rgba(180, 83, 9, 0.18); stroke: #f59e0b; stroke-width: 2; }
    .boundary { fill: rgba(255, 157, 0, 0.09); stroke: #f59e0b; stroke-width: 1.75; stroke-dasharray: 8 6; }
    .module { fill: rgba(15, 23, 42, 0.72); stroke: #334155; stroke-width: 1.25; }
    .label-bg { fill: #101624; stroke: #2a3a52; stroke-width: 1; }
    .title { font: 700 25px ui-sans-serif, system-ui, -apple-system, sans-serif; fill: #f8fafc; }
    .subtitle { font: 700 16px ui-sans-serif, system-ui, -apple-system, sans-serif; fill: #e2e8f0; }
    .label { font: 14px ui-sans-serif, system-ui, -apple-system, sans-serif; fill: #cbd5e1; }
    .small { font: 13px ui-sans-serif, system-ui, -apple-system, sans-serif; fill: #94a3b8; }
    .mono { font: 14px ui-monospace, "SF Mono", Menlo, monospace; fill: #e0f2fe; }
    .mono-amber { font: 14px ui-monospace, "SF Mono", Menlo, monospace; fill: #ffd28a; }
    .arrow { stroke: #22d3ee; stroke-width: 2.2; fill: none; marker-end: url(#arrow); }
    .arrow-muted { stroke: #64748b; stroke-width: 1.8; fill: none; marker-end: url(#arrow-muted); }
  </style>
  <defs>
    <marker id="arrow" markerWidth="10" markerHeight="10" refX="9" refY="3" orient="auto">
      <path d="M0,0 L0,6 L9,3 z" fill="#22d3ee"/>
    </marker>
    <marker id="arrow-muted" markerWidth="10" markerHeight="10" refX="9" refY="3" orient="auto">
      <path d="M0,0 L0,6 L9,3 z" fill="#64748b"/>
    </marker>
  </defs>

  <rect x="35" y="30" width="1370" height="780" rx="12" class="panel"/>
  <text x="70" y="78" class="title">ts-stack layers</text>
  <text x="70" y="110" class="label">Apps stay above the wallet boundary. Wallet implementations own signing, storage, key derivation, and output selection.</text>

  <rect x="95" y="155" width="1250" height="160" rx="12" class="layer-app"/>
  <text x="720" y="198" text-anchor="middle" class="subtitle">Application layer</text>
  <text x="720" y="226" text-anchor="middle" class="small">Developer-facing APIs for browser apps and service agents</text>

  <rect x="155" y="255" width="360" height="44" rx="8" class="module"/>
  <text x="335" y="283" text-anchor="middle" class="mono">@bsv/simple/browser</text>

  <rect x="540" y="255" width="360" height="44" rx="8" class="module"/>
  <text x="720" y="283" text-anchor="middle" class="mono">@bsv/simple/server</text>

  <rect x="925" y="255" width="360" height="44" rx="8" class="module"/>
  <text x="1105" y="283" text-anchor="middle" class="mono">@bsv/wallet-helper</text>

  <line x1="720" y1="315" x2="720" y2="348" class="arrow"/>
  <rect x="525" y="358" width="390" height="60" rx="10" class="boundary"/>
  <text x="720" y="383" text-anchor="middle" class="mono-amber">BRC-100 wallet interface</text>
  <text x="720" y="405" text-anchor="middle" class="small">createAction, signAction, listOutputs, keys, certificates</text>

  <line x1="720" y1="418" x2="720" y2="452" class="arrow"/>
  <rect x="95" y="462" width="1250" height="165" rx="12" class="layer-wallet"/>
  <text x="720" y="505" text-anchor="middle" class="subtitle">Wallet builder toolkit</text>
  <text x="720" y="533" text-anchor="middle" class="small">Composable implementation pieces for BRC-100 wallets such as BSV Desktop and BSV Browser</text>

  <rect x="155" y="568" width="250" height="40" rx="8" class="module"/>
  <text x="280" y="594" text-anchor="middle" class="mono">@bsv/wallet-toolbox</text>

  <rect x="435" y="568" width="250" height="40" rx="8" class="module"/>
  <text x="560" y="594" text-anchor="middle" class="small">storage providers</text>

  <rect x="715" y="568" width="250" height="40" rx="8" class="module"/>
  <text x="840" y="594" text-anchor="middle" class="small">WalletSigner + Services</text>

  <rect x="995" y="568" width="250" height="40" rx="8" class="module"/>
  <text x="1120" y="594" text-anchor="middle" class="small">Monitor + key managers</text>

  <line x1="720" y1="627" x2="720" y2="666" class="arrow-muted"/>
  <rect x="95" y="676" width="1250" height="110" rx="12" class="layer-sdk"/>
  <text x="720" y="714" text-anchor="middle" class="subtitle">Foundation: @bsv/sdk</text>
  <text x="720" y="740" text-anchor="middle" class="small">Zero-dependency primitives used by every layer above</text>

  <text x="180" y="770" class="label">secp256k1/r1</text>
  <text x="365" y="770" class="label">hashing</text>
  <text x="500" y="770" class="label">Script engine</text>
  <text x="675" y="770" class="label">transactions</text>
  <text x="850" y="770" class="label">BEEF / BUMP</text>
  <text x="1030" y="770" class="label">BRC-42 derivation</text>
  <text x="1200" y="770" class="label">ARC / Chaintracks</text>
</svg>
