<?xml version="1.0" encoding="UTF-8"?>
<svg id="Layer_2" data-name="Layer 2" xmlns="http://www.w3.org/2000/svg" viewBox="0 0 3352.6 2573.73">
  <defs>
    <style>
      .cls-1 {
        fill: #fff;
      }
    </style>
  </defs>
  <g id="Layer_1-2" data-name="Layer 1">
    <g>
      <g>
        <path class="cls-1" d="M392.86,2508.87l53.47-26.73c9.64,21.47,30.24,32.43,60.92,32.43,27.61,0,48.65-11.4,48.65-32.43,0-24.54-23.23-28.49-53.91-33.75-44.26-7.45-104.31-23.23-104.31-89.84,0-51.72,46.46-91.16,107.37-91.16,48.65,0,90.72,22.35,109.57,64.42l-53.47,26.73c-9.64-18.85-28.93-31.99-58.73-31.99-24.1,0-40.76,11.4-40.76,29.36,0,23.67,24.54,29.8,56.54,35.5,43.83,7.45,101.68,23.23,101.68,90.28,0,53.03-49.96,91.6-112.63,91.6-53.03,0-95.54-22.35-114.39-64.42Z"/>
        <path class="cls-1" d="M694.38,2508.87l53.47-26.73c9.64,21.47,30.24,32.43,60.92,32.43,27.61,0,48.65-11.4,48.65-32.43,0-24.54-23.23-28.49-53.91-33.75-44.26-7.45-104.31-23.23-104.31-89.84,0-51.72,46.46-91.16,107.37-91.16,48.65,0,90.72,22.35,109.57,64.42l-53.47,26.73c-9.64-18.85-28.93-31.99-58.73-31.99-24.1,0-40.76,11.4-40.76,29.36,0,23.67,24.54,29.8,56.54,35.5,43.83,7.45,101.68,23.23,101.68,90.28,0,53.03-49.96,91.6-112.63,91.6-53.03,0-95.54-22.35-114.39-64.42Z"/>
        <path class="cls-1" d="M991.51,2420.33c0-86.78,66.18-152.95,153.39-152.95s153.83,66.18,153.83,152.95-66.62,152.95-153.83,152.95-153.39-65.74-153.39-152.95ZM1232.55,2420.33c0-52.15-38.13-92.47-87.65-92.47s-87.66,40.32-87.66,92.47,38.57,92.47,87.66,92.47,87.65-40.32,87.65-92.47Z"/>
        <path class="cls-1" d="M1364.02,2420.33c0-85.46,67.05-153.39,152.95-153.39,51.28,0,100.36,27.17,122.28,73.19l-52.15,29.36c-14.47-25.42-37.25-41.64-72.75-41.64-49.09,0-84.59,39.01-84.59,92.47s35.06,92.47,84.59,92.47c35.5,0,59.17-16.22,72.75-41.64l52.15,29.36c-21.91,46.02-71,73.19-122.28,73.19-85.9,0-152.95-67.93-152.95-153.39Z"/>
        <path class="cls-1" d="M1783.87,2272.64v294.95h-63.99v-294.95h63.99Z"/>
        <path class="cls-1" d="M2457.68,2331.81h-86.78v235.79h-63.99v-235.79h-86.78v-59.17h237.54v59.17Z"/>
        <path class="cls-1" d="M2602.74,2272.64v294.95h-63.99v-294.95h63.99Z"/>
        <path class="cls-1" d="M2692.14,2420.33c0-86.78,66.18-152.95,153.39-152.95s153.83,66.18,153.83,152.95-66.62,152.95-153.83,152.95-153.39-65.74-153.39-152.95ZM2933.19,2420.33c0-52.15-38.13-92.47-87.65-92.47s-87.66,40.32-87.66,92.47,38.57,92.47,87.66,92.47,87.65-40.32,87.65-92.47Z"/>
        <path class="cls-1" d="M3085.7,2567.59v-254.63c0-29.36,21.47-46.46,45.58-46.46,19.28,0,34.62,7.01,44.27,23.23l116.58,199.85v-216.94h60.48v254.63c0,29.36-21.47,46.02-44.7,46.02-18.85,0-35.06-6.57-44.7-22.79l-116.58-201.16v218.26h-60.92Z"/>
        <path class="cls-1" d="M338.1,2562.83l-138.81-277.96c-6.02-11.78-16.74-18.86-28.85-18.86s-22.83,7.08-28.78,18.86L2.38,2562.7l-2.38,4.76h66.23l2.18.07.93-1.98,31.03-69.8h138.55l30.44,69.87.86,1.99h70.27l-2.38-4.76ZM170.44,2355.87c2.12,0,3.9,1.26,5.03,3.44l40.76,80.52h-91.51l40.76-80.52c1.12-2.18,2.91-3.44,4.96-3.44Z"/>
        <path class="cls-1" d="M2200.56,2562.83l-138.81-277.96c-6.02-11.78-16.74-18.86-28.85-18.86s-22.83,7.08-28.78,18.86l-139.28,277.83-2.38,4.76h66.23l2.18.07.93-1.98,31.03-69.8h138.55l30.44,69.87.86,1.99h70.27l-2.38-4.76ZM2032.9,2355.87c2.12,0,3.9,1.26,5.03,3.44l40.76,80.52h-91.51l40.76-80.52c1.12-2.18,2.91-3.44,4.96-3.44Z"/>
      </g>
      <g id="Avatar_patch_BSV_A" data-name="Avatar patch BSV A">
        <path class="cls-1" d="M1228.86,1781.48c38.59-20.4,60.32-55.65,60.32-99.09,0-52.62-25.86-115.36-149.09-115.36h-333.62v448.37h361.21c93.19,0,146.63-45.62,146.63-125.17,0-52.94-29.44-90.24-85.45-108.75ZM902.31,1642.02h215.1c68.6,0,76.54,32.13,76.54,56.3,0,38.58-25.75,58.15-76.54,58.15h-215.1v-114.45ZM1141.94,1940.4h-239.63v-117.52h239.63c33.52,0,73.47,10.09,73.47,58.15,0,40.51-23.35,59.38-73.47,59.38ZM2546.07,1567.02l-242.21,448.37h-123.43l-242.21-448.37h103.85l200.68,373.11,200.07-373.11h103.24ZM1900.71,1885.93c0,125.62-135.7,141.73-253.92,141.73-89.92,0-178.47-9.96-247.89-27.6v-79.41c10.91,3.58,22.96,6.94,36.12,10.03,58.47,13.75,137.63,21.97,211.77,21.97,129.16,0,155.63-25.7,155.63-64.27,0-45.49-30.39-52.1-160.37-60.61l-24.59-1.84c-174.85-10.69-236.86-47.29-236.86-139.86,0-87.53,79.65-130.08,243.5-130.08,88.6,0,183.13,13.95,253.04,37.32v78.54c-58.81-29.16-176.88-40.86-259.78-40.86-115.29,0-138.46,21.07-138.46,55.08,0,43.03,28.15,54.93,150.6,63.68l25.75,1.84c152.19,10.91,245.46,23.25,245.46,134.35Z"/>
      </g>
      <polygon class="cls-1" points="2423.01 1293.4 929.54 1293.4 1676.27 0 2423.01 1293.4"/>
    </g>
  </g>
</svg>